# File created by Blade
# Date/Time:  Thu Sep 25 18:58:07 2014
# Frame Rate: 120.000 fps
#------------------------------------------------------
:FULLY-SPECIFIED
:DEGREES
2538
root 1.542559 32.994459 1.251198 9.024781 -0.257551 0.093178
Spine -8.072156 2.789298 -1.388485
Head 10.939527 -7.172741 10.395040
LeftShoulder -22.670677 19.715957 23.743334
LeftArm 4.944260 -31.977124 -40.283237
LeftForeArm 21.762015 -0.000000 15.099430
LeftHand -38.255997 -0.000000 6.852151
LeftHandThumb1 -26.253704 0.000000 33.147579
RightShoulder -27.811531 9.181352 -39.068632
RightArm -30.750211 14.173985 32.922295
RightForeArm -35.503941 -0.000000 16.026719
RightHand -19.471057 -0.000000 7.361468
RightHandThumb1 -24.326973 -0.000000 -32.862282
LeftUpLeg -3.199312 10.884144 3.211597
LeftLeg -2.958390 -0.000000 0.000000
LeftFoot -4.799415 -3.144189 -18.600741
LeftToeBase 9.073256 -0.000000 -0.000000
RightUpLeg -3.946121 -10.448651 -6.375458
RightLeg -0.344084 -0.000000 0.000000
RightFoot -2.933482 -0.421000 3.877775
RightToeBase -3.130150 -0.000000 0.000000
2539
root 1.540499 32.994885 1.239005 9.062662 -0.227016 0.103249
Spine -8.071727 2.779759 -1.412951
Head 10.869505 -7.199381 10.378354
LeftShoulder -22.638625 19.707341 23.746153
LeftArm 4.960281 -31.976794 -40.300171
LeftForeArm 21.850904 -0.000000 15.174419
LeftHand -38.357418 -0.000000 6.836134
LeftHandThumb1 -26.253704 0.000000 33.147579
RightShoulder -27.800503 9.186598 -39.058759
RightArm -30.643984 14.017411 33.004480
RightForeArm -35.456173 0.000000 15.971474
RightHand -19.459959 -0.000000 7.392735
RightHandThumb1 -24.326973 -0.000000 -32.862282
LeftUpLeg -3.259481 10.915197 3.195844
LeftLeg -2.971620 -0.000000 0.000000
LeftFoot -4.745954 -3.195510 -18.620470
LeftToeBase 9.091008 -0.000000 -0.000000
RightUpLeg -3.994351 -10.471238 -6.367742
RightLeg -0.354821 -0.000000 0.000000
RightFoot -2.925169 -0.436287 3.836463
RightToeBase -3.105465 -0.000000 0.000000
2540
root 1.538883 32.995235 1.227544 9.094865 -0.194101 0.109839
Spine -8.065859 2.753397 -1.423322
Head 10.808386 -7.201253 10.354155
LeftShoulder -22.621855 19.718328 23.731979
LeftArm 4.982107 -31.963743 -40.310811
LeftForeArm 21.897530 -0.000000 15.193193
LeftHand -38.323807 -0.000000 6.924017
LeftHandThumb1 -26.253704 0.000000 33.147579
RightShoulder -27.761763 9.207928 -39.070007
RightArm -30.627128 13.941555 33.053528
RightForeArm -35.451294 -0.000000 16.012649
RightHand -19.561220 -0.000000 7.271633
RightHandThumb1 -24.326973 -0.000000 -32.862282
LeftUpLeg -3.309310 10.918206 3.186462
LeftLeg -2.988645 -0.000000 0.000000
LeftFoot -4.720260 -3.233419 -18.627038
LeftToeBase 9.170012 -0.000000 -0.000000
RightUpLeg -4.031653 -10.484951 -6.359437
RightLeg -0.370789 -0.000000 0.000000
RightFoot -2.911526 -0.457519 3.814615
RightToeBase -3.106301 -0.000000 0.000000
2541
root 1.537853 32.995918 1.214809 9.135749 -0.167493 0.125880
Spine -8.069991 2.731544 -1.454307
Head 10.764589 -7.213410 10.355655
LeftShoulder -22.598621 19.714036 23.743944
LeftArm 4.979304 -31.948583 -40.323919
LeftForeArm 21.923144 -0.000000 15.224487
LeftHand -38.392280 -0.000000 7.026347
LeftHandThumb1 -26.253704 0.000000 33.147579
RightShoulder -27.737482 9.196449 -39.052751
RightArm -30.544340 13.910445 33.099241
RightForeArm -35.336697 -0.000000 15.974111
RightHand -19.632575 0.000000 7.097624
RightHandThumb1 -24.326973 -0.000000 -32.862282
LeftUpLeg -3.375656 10.935151 3.162223
LeftLeg -2.997083 -0.000000 0.000000
LeftFoot -4.683369 -3.272717 -18.621153
LeftToeBase 9.195875 -0.000000 -0.000000
RightUpLeg -4.087085 -10.502263 -6.357807
RightLeg -0.378102 -0.000000 0.000000
RightFoot -2.906062 -0.484820 3.812245
RightToeBase -3.075293 -0.000000 0.000000
2542
root 1.535066 32.996162 1.205021 9.164144 -0.139345 0.117607
Spine -8.065188 2.712635 -1.446786
Head 10.724883 -7.214706 10.337524
LeftShoulder -22.584718 19.701751 23.744665
LeftArm 4.978195 -31.919489 -40.334107
LeftForeArm 21.937028 -0.000000 15.245669
LeftHand -38.420782 -0.000000 7.173942
LeftHandThumb1 -26.253704 0.000000 33.147579
RightShoulder -27.719273 9.205244 -39.071752
RightArm -30.518043 13.935298 33.084272
RightForeArm -35.535366 -0.000000 15.937157
RightHand -19.484078 0.000000 6.917985
RightHandThumb1 -24.326973 -0.000000 -32.862282
LeftUpLeg -3.418909 10.956361 3.168503
LeftLeg -3.016851 -0.000000 0.000000
LeftFoot -4.635702 -3.313695 -18.684728
LeftToeBase 9.204087 -0.000000 -0.000000
RightUpLeg -4.119556 -10.511154 -6.337217
RightLeg -0.393764 -0.000000 0.000000
RightFoot -2.899736 -0.496435 3.816881
RightToeBase -3.051911 -0.000000 0.000000
